<svg width="256" height="256" viewBox="0 0 256 256" fill="none" xmlns="http://www.w3.org/2000/svg">
  <g clip-path="url(#clip0_1_2)">
    <rect width="256" height="256" rx="32" fill="white" />
    <path
      d="M160.172 227.88C156.758 227.88 153.718 227.053 151.052 225.4C148.385 223.693 146.278 221.347 144.732 218.36C143.185 215.32 142.412 211.8 142.412 207.8C142.412 203.8 143.185 200.307 144.732 197.32C146.278 194.333 148.385 192.013 151.052 190.36C153.718 188.653 156.758 187.8 160.172 187.8C163.052 187.8 165.612 188.493 167.852 189.88C170.092 191.213 171.878 193.053 173.212 195.4V171.88C173.212 170.12 174.012 169.24 175.612 169.24C177.265 169.24 178.092 170.12 178.092 171.88V224.36C178.092 226.12 177.345 227 175.852 227C174.358 227 173.612 226.44 173.612 225.32L173.532 219.96C172.145 222.413 170.305 224.36 168.012 225.8C165.718 227.187 163.105 227.88 160.172 227.88ZM160.332 223.32C162.838 223.32 165.052 222.68 166.972 221.4C168.945 220.12 170.492 218.333 171.612 216.04C172.732 213.693 173.292 210.947 173.292 207.8C173.292 204.653 172.732 201.933 171.612 199.64C170.492 197.347 168.945 195.56 166.972 194.28C165.052 193 162.838 192.36 160.332 192.36C157.825 192.36 155.585 193 153.612 194.28C151.638 195.56 150.092 197.347 148.972 199.64C147.852 201.933 147.292 204.653 147.292 207.8C147.292 210.947 147.852 213.693 148.972 216.04C150.092 218.333 151.638 220.12 153.612 221.4C155.585 222.68 157.825 223.32 160.332 223.32ZM196.92 227.88C193.454 227.88 190.36 227.08 187.64 225.48C184.974 223.827 182.867 221.507 181.32 218.52C179.827 215.48 179.08 211.907 179.08 207.8C179.08 203.8 179.827 200.307 181.32 197.32C182.867 194.333 184.974 192.013 187.64 190.36C190.307 188.653 193.347 187.8 196.76 187.8C200.227 187.8 203.16 188.653 205.56 190.36C208.014 192.067 209.88 194.227 211.16 196.84C212.44 199.453 213.08 202.12 213.08 204.84C213.08 205.8 212.84 206.467 212.36 206.84C211.934 207.213 211.294 207.4 210.44 207.4H183.96C183.854 212.2 184.974 216.093 187.32 219.08C189.72 222.013 192.947 223.48 197 223.48C202.014 223.48 205.747 221.213 208.2 216.68C209.267 215.293 210.36 214.92 211.48 215.56C212.867 216.467 213.054 217.667 212.04 219.16C208.68 224.973 203.64 227.88 196.92 227.88ZM184.28 203.24H208.28C208.014 201.16 207.347 199.267 206.28 197.56C205.267 195.853 203.934 194.493 202.28 193.48C200.68 192.467 198.84 191.96 196.76 191.96C193.507 191.96 190.76 192.973 188.52 195C186.334 196.973 184.92 199.72 184.28 203.24ZM226.431 227.08C225.844 227.08 225.284 226.92 224.751 226.6C224.218 226.227 223.818 225.667 223.551 224.92L210.431 191.72C210.058 190.813 210.004 190.093 210.271 189.56C210.591 188.973 211.178 188.68 212.031 188.68C213.578 188.68 214.591 189.373 215.071 190.76L226.351 220.04L237.311 190.76C237.898 189.373 238.911 188.68 240.351 188.68C241.151 188.68 241.684 188.973 241.951 189.56C242.218 190.093 242.191 190.813 241.871 191.72L229.231 224.84C228.644 226.333 227.711 227.08 226.431 227.08Z"
      fill="black"
    />
    <path
      d="M6.784 250.176C6.272 249.749 6.016 249.195 6.016 248.512C6.016 247.829 6.22933 247.317 6.656 246.976C11.1787 242.539 14.8053 238.059 17.536 233.536C20.352 229.013 22.4853 224.235 23.936 219.2C25.3867 214.08 26.368 208.533 26.88 202.56C27.4773 196.501 27.776 189.803 27.776 182.464V151.232C27.776 150.549 27.9893 149.995 28.416 149.568C28.928 149.141 29.4827 148.928 30.08 148.928C30.7627 148.928 31.3173 149.141 31.744 149.568C32.1707 149.995 32.384 150.549 32.384 151.232V182.464C32.384 190.656 32.0853 197.909 31.488 204.224C30.8907 210.453 29.7813 216.171 28.16 221.376C26.624 226.496 24.4053 231.36 21.504 235.968C18.6027 240.576 14.848 245.269 10.24 250.048C9.81333 250.475 9.25867 250.688 8.576 250.688C7.89333 250.773 7.296 250.603 6.784 250.176ZM106.24 254.272C105.643 254.272 105.088 254.016 104.576 253.504C104.149 253.077 103.936 252.565 103.936 251.968V148.8C103.936 148.117 104.149 147.563 104.576 147.136C105.088 146.709 105.643 146.496 106.24 146.496C106.923 146.496 107.477 146.709 107.904 147.136C108.331 147.563 108.544 148.117 108.544 148.8V251.968C108.544 252.565 108.331 253.077 107.904 253.504C107.477 254.016 106.923 254.272 106.24 254.272ZM67.968 244.8C67.3707 244.8 66.816 244.587 66.304 244.16C65.8773 243.648 65.664 243.093 65.664 242.496V154.944C65.664 154.261 65.8773 153.707 66.304 153.28C66.816 152.853 67.3707 152.64 67.968 152.64C68.6507 152.64 69.2053 152.853 69.632 153.28C70.0587 153.707 70.272 154.261 70.272 154.944V242.496C70.272 243.093 70.0587 243.648 69.632 244.16C69.2053 244.587 68.6507 244.8 67.968 244.8Z"
      fill="black"
    />
    <path
      d="M180.992 120.128C172.288 120.128 165.291 119.189 160 117.312C154.795 115.435 150.997 112.192 148.608 107.584C146.304 102.891 145.152 96.448 145.152 88.256V58.304C145.152 50.0267 146.304 43.584 148.608 38.976C150.997 34.368 154.795 31.1253 160 29.248C165.291 27.3707 172.288 26.432 180.992 26.432H203.008C211.797 26.432 218.795 27.3707 224 29.248C229.205 31.1253 232.96 34.368 235.264 38.976C237.653 43.584 238.848 50.0267 238.848 58.304V88.256C238.848 96.448 237.653 102.891 235.264 107.584C232.96 112.192 229.205 115.435 224 117.312C218.795 119.189 211.797 120.128 203.008 120.128H180.992ZM180.992 115.52H189.696V75.584H149.76V88.256C149.76 95.3387 150.741 100.885 152.704 104.896C154.752 108.821 158.037 111.595 162.56 113.216C167.168 114.752 173.312 115.52 180.992 115.52ZM149.76 70.976H189.696V31.04H180.992C173.312 31.04 167.168 31.8507 162.56 33.472C158.037 35.008 154.752 37.7387 152.704 41.664C150.741 45.5893 149.76 51.136 149.76 58.304V70.976ZM194.304 115.52H203.008C210.688 115.52 216.789 114.752 221.312 113.216C225.92 111.595 229.205 108.821 231.168 104.896C233.216 100.885 234.24 95.3387 234.24 88.256V75.584H194.304V115.52ZM194.304 70.976H234.24V58.304C234.24 51.136 233.216 45.5893 231.168 41.664C229.205 37.7387 225.92 35.008 221.312 33.472C216.789 31.8507 210.688 31.04 203.008 31.04H194.304V70.976Z"
      fill="black"
    />
    <path
      d="M50.816 130.368C50.2187 130.368 49.664 130.112 49.152 129.6C48.7253 129.173 48.512 128.661 48.512 128.064V94.4C48.512 89.8773 49.024 86.3787 50.048 83.904C51.1573 81.4293 53.0773 79.7227 55.808 78.784C58.5387 77.76 62.4213 77.248 67.456 77.248H80.384V63.936H74.624C69.5893 63.936 65.6213 63.424 62.72 62.4C59.8187 61.2907 57.7707 59.4133 56.576 56.768C55.3813 54.0373 54.784 50.24 54.784 45.376V37.44C54.784 32.576 55.3813 28.8213 56.576 26.176C57.7707 23.4453 59.8187 21.568 62.72 20.544C65.6213 19.52 69.5893 19.008 74.624 19.008H91.52C96.64 19.008 100.651 19.52 103.552 20.544C106.453 21.568 108.501 23.4453 109.696 26.176C110.891 28.8213 111.488 32.576 111.488 37.44V45.376C111.488 50.24 110.891 54.0373 109.696 56.768C108.501 59.4133 106.453 61.2907 103.552 62.4C100.651 63.424 96.64 63.936 91.52 63.936H84.864V77.248H99.328C104.363 77.248 108.245 77.76 110.976 78.784C113.707 79.7227 115.584 81.4293 116.608 83.904C117.717 86.3787 118.272 89.8773 118.272 94.4V115.136C118.272 118.72 117.76 121.579 116.736 123.712C115.797 125.845 114.048 127.339 111.488 128.192C109.013 129.131 105.472 129.6 100.864 129.6C100.267 129.6 99.712 129.344 99.2 128.832C98.7733 128.405 98.56 127.893 98.56 127.296C98.56 126.613 98.7733 126.059 99.2 125.632C99.712 125.205 100.267 124.992 100.864 124.992C104.448 124.992 107.136 124.693 108.928 124.096C110.805 123.499 112.043 122.475 112.64 121.024C113.323 119.659 113.664 117.696 113.664 115.136V94.4C113.664 90.9013 113.28 88.256 112.512 86.464C111.829 84.5867 110.464 83.3493 108.416 82.752C106.368 82.0693 103.339 81.728 99.328 81.728H84.864V101.952C87.3387 101.525 89.6853 101.141 91.904 100.8C94.1227 100.373 96.128 99.9893 97.92 99.648C97.152 98.112 96.384 96.6613 95.616 95.296C94.9333 93.8453 94.2933 92.5653 93.696 91.456C92.928 90.2613 93.2267 89.28 94.592 88.512C95.9573 87.9147 96.9813 88.256 97.664 89.536C99.2853 92.2667 100.992 95.5947 102.784 99.52C104.576 103.36 106.155 106.901 107.52 110.144C107.776 110.741 107.776 111.339 107.52 111.936C107.349 112.533 106.923 112.96 106.24 113.216C104.875 113.813 103.893 113.429 103.296 112.064C102.784 110.784 102.187 109.376 101.504 107.84C100.907 106.304 100.224 104.725 99.456 103.104C95.9573 103.872 91.9467 104.725 87.424 105.664C82.9013 106.517 78.336 107.328 73.728 108.096C69.12 108.779 64.9387 109.376 61.184 109.888C59.7333 110.144 58.8373 109.547 58.496 108.096C58.4107 107.413 58.5813 106.859 59.008 106.432C59.4347 105.92 59.9467 105.621 60.544 105.536C63.104 105.195 66.1333 104.811 69.632 104.384C73.1307 103.872 76.7147 103.317 80.384 102.72V81.728H67.456C63.4453 81.728 60.3733 82.0693 58.24 82.752C56.192 83.3493 54.8267 84.5867 54.144 86.464C53.4613 88.256 53.12 90.9013 53.12 94.4V128.064C53.12 128.661 52.9067 129.173 52.48 129.6C52.0533 130.112 51.4987 130.368 50.816 130.368ZM14.08 131.136C13.4827 131.136 12.928 130.88 12.416 130.368C11.9893 129.941 11.776 129.429 11.776 128.832V31.168C11.776 26.2187 12.8427 22.8053 14.976 20.928C17.1947 18.9653 21.2907 17.984 27.264 17.984C34.3467 17.984 38.912 19.4347 40.96 22.336C43.0933 25.152 42.88 28.8213 40.32 33.344C39.04 35.5627 37.5467 38.1653 35.84 41.152C34.1333 44.1387 32.6827 46.656 31.488 48.704C30.208 51.008 29.3973 52.8 29.056 54.08C28.7147 55.2747 28.8427 56.3413 29.44 57.28C30.0373 58.2187 31.0613 59.4133 32.512 60.864C35.7547 64.0213 38.4427 67.6053 40.576 71.616C42.7093 75.6267 43.776 80.0213 43.776 84.8C43.776 90.7733 41.984 95.552 38.4 99.136C34.816 102.72 29.0987 104.512 21.248 104.512C20.6507 104.512 20.096 104.299 19.584 103.872C19.1573 103.36 18.944 102.805 18.944 102.208C18.944 101.525 19.1573 100.971 19.584 100.544C20.096 100.117 20.6507 99.904 21.248 99.904C27.5627 99.904 32.128 98.6667 34.944 96.192C37.76 93.7173 39.168 89.92 39.168 84.8C39.168 80.96 38.272 77.248 36.48 73.664C34.688 69.9947 32.3413 66.7093 29.44 63.808C27.392 61.6747 25.9413 59.9253 25.088 58.56C24.32 57.1093 24.1493 55.488 24.576 53.696C25.088 51.904 26.1547 49.5147 27.776 46.528C28.4587 45.248 29.312 43.712 30.336 41.92C31.36 40.0427 32.384 38.208 33.408 36.416C34.432 34.5387 35.2427 33.0027 35.84 31.808C37.5467 28.5653 37.76 26.2187 36.48 24.768C35.2853 23.3173 32.2133 22.592 27.264 22.592C22.8267 22.592 19.8827 23.1893 18.432 24.384C17.0667 25.4933 16.384 27.7547 16.384 31.168V128.832C16.384 129.429 16.1707 129.941 15.744 130.368C15.3173 130.88 14.7627 131.136 14.08 131.136ZM84.864 59.328H91.52C95.616 59.328 98.7733 58.9867 100.992 58.304C103.211 57.536 104.747 56.1707 105.6 54.208C106.453 52.16 106.88 49.216 106.88 45.376V43.584H84.864V59.328ZM84.864 38.976H106.88V37.44C106.88 33.6 106.453 30.6987 105.6 28.736C104.747 26.688 103.211 25.3227 100.992 24.64C98.7733 23.9573 95.616 23.616 91.52 23.616H84.864V38.976ZM74.624 59.328H80.384V43.584H59.392V45.376C59.392 49.216 59.8187 52.16 60.672 54.208C61.5253 56.1707 63.0613 57.536 65.28 58.304C67.4987 58.9867 70.6133 59.328 74.624 59.328ZM59.392 38.976H80.384V23.616H74.624C70.6133 23.616 67.4987 23.9573 65.28 24.64C63.0613 25.3227 61.5253 26.688 60.672 28.736C59.8187 30.6987 59.392 33.6 59.392 37.44V38.976Z"
      fill="black"
    />
    <circle cx="128" cy="223" r="4" fill="black" />
  </g>
  <defs>
    <clipPath id="clip0_1_2">
      <rect width="256" height="256" rx="32" fill="white" />
    </clipPath>
  </defs>
</svg>
